<?xml version="1.0" encoding="UTF-8" standalone="no"?>
<!-- Created with Inkscape (http://www.inkscape.org/) -->

<svg
   width="100mm"
   height="100mm"
   viewBox="0 0 100 100"
   version="1.1"
   id="svg5"
   inkscape:version="1.2.2 (b0a8486541, 2022-12-01)"
   sodipodi:docname="env-dark.svg"
   inkscape:export-filename="./env-dark.png"
   inkscape:export-xdpi="96"
   inkscape:export-ydpi="96"
   xmlns:inkscape="http://www.inkscape.org/namespaces/inkscape"
   xmlns:sodipodi="http://sodipodi.sourceforge.net/DTD/sodipodi-0.dtd"
   xmlns="http://www.w3.org/2000/svg"
   xmlns:svg="http://www.w3.org/2000/svg">
  <sodipodi:namedview
     id="namedview7"
     pagecolor="#ffffff"
     bordercolor="#000000"
     borderopacity="0.25"
     inkscape:showpageshadow="2"
     inkscape:pageopacity="0.0"
     inkscape:pagecheckerboard="0"
     inkscape:deskcolor="#d1d1d1"
     inkscape:document-units="mm"
     showgrid="false"
     inkscape:zoom="0.53896605"
     inkscape:cx="93.697924"
     inkscape:cy="329.33429"
     inkscape:window-width="1600"
     inkscape:window-height="783"
     inkscape:window-x="0"
     inkscape:window-y="0"
     inkscape:window-maximized="1"
     inkscape:current-layer="layer1" />
  <defs
     id="defs2" />
  <g
     inkscape:label="Capa 1"
     inkscape:groupmode="layer"
     id="layer1"
     transform="translate(286.16833,-86.687645)">
    <rect
       style="fill:#000000;fill-opacity:1;stroke-width:1.15756"
       id="rect1346"
       width="100"
       height="100"
       x="-286.16833"
       y="86.687645"
       ry="2.6610968" />
    <path
       id="rect1285"
       style="fill:#ffffff;fill-opacity:1;stroke-width:1.0287"
       d="m -257.66461,108.23015 c -2.22735,0 -4.02061,1.79326 -4.02061,4.02061 v 5.58677 h -4.37517 c -1.54393,0 -2.78649,1.24381 -2.78649,2.78773 0,1.54391 1.24256,2.7865 2.78649,2.7865 h 4.37517 v 37.71276 c 0,2.22734 1.79326,4.02061 4.02061,4.02061 2.22735,0 4.02061,-1.79327 4.02061,-4.02061 v -37.71276 h 4.37519 c 1.54392,0 2.78646,-1.24259 2.78646,-2.7865 0,-1.54392 -1.24254,-2.78773 -2.78646,-2.78773 h -4.37519 v -5.58677 c 0,-2.22735 -1.79326,-4.02061 -4.02061,-4.02061 z m 21.49629,0 c -2.22735,0 -4.02062,1.79326 -4.02062,4.02061 v 37.71276 h -4.37518 c -1.54391,0 -2.78647,1.24259 -2.78647,2.7865 0,1.54393 1.24256,2.78775 2.78647,2.78775 h 4.37518 v 5.58675 c 0,2.22734 1.79327,4.02061 4.02062,4.02061 2.22736,0 4.0206,-1.79327 4.0206,-4.02061 v -5.58675 h 4.37518 c 1.54391,0 2.7865,-1.24382 2.7865,-2.78775 0,-1.54391 -1.24259,-2.7865 -2.7865,-2.7865 h -4.37518 v -37.71276 c 0,-2.22735 -1.79324,-4.02061 -4.0206,-4.02061 z m 21.49627,0 c -2.22735,0 -4.02059,1.79326 -4.02059,4.02061 v 5.58677 h -4.37521 c -1.54392,0 -2.78646,1.24381 -2.78646,2.78773 0,1.54391 1.24254,2.7865 2.78646,2.7865 h 4.37521 v 37.71276 c 0,2.22734 1.79324,4.02061 4.02059,4.02061 2.22735,0 4.02061,-1.79327 4.02061,-4.02061 v -37.71276 h 4.37517 c 1.54393,0 2.78649,-1.24259 2.78649,-2.7865 0,-1.54392 -1.24256,-2.78773 -2.78649,-2.78773 h -4.37517 v -5.58677 c 0,-2.22735 -1.79326,-4.02061 -4.02061,-4.02061 z" />
  </g>
</svg>
