<?xml version="1.0" encoding="UTF-8" standalone="no"?>
<!-- Created with Inkscape (http://www.inkscape.org/) -->

<svg
   width="338.66666mm"
   height="169.33333mm"
   viewBox="0 0 338.66666 169.33333"
   version="1.1"
   id="svg5"
   inkscape:version="1.2.2 (b0a8486541, 2022-12-01)"
   sodipodi:docname="cover.svg"
   inkscape:export-filename="./cover.png"
   inkscape:export-xdpi="96"
   inkscape:export-ydpi="96"
   xmlns:inkscape="http://www.inkscape.org/namespaces/inkscape"
   xmlns:sodipodi="http://sodipodi.sourceforge.net/DTD/sodipodi-0.dtd"
   xmlns="http://www.w3.org/2000/svg"
   xmlns:svg="http://www.w3.org/2000/svg">
  <sodipodi:namedview
     id="namedview7"
     pagecolor="#ffffff"
     bordercolor="#000000"
     borderopacity="0.25"
     inkscape:showpageshadow="2"
     inkscape:pageopacity="0.0"
     inkscape:pagecheckerboard="0"
     inkscape:deskcolor="#d1d1d1"
     inkscape:document-units="mm"
     showgrid="false"
     inkscape:zoom="0.53896605"
     inkscape:cx="553.83822"
     inkscape:cy="379.43021"
     inkscape:window-width="1600"
     inkscape:window-height="783"
     inkscape:window-x="0"
     inkscape:window-y="0"
     inkscape:window-maximized="1"
     inkscape:current-layer="layer1" />
  <defs
     id="defs2">
    <rect
       x="-676.25867"
       y="204.14522"
       width="636.57037"
       height="133.10352"
       id="rect3814" />
  </defs>
  <g
     inkscape:label="Capa 1"
     inkscape:groupmode="layer"
     id="layer1"
     transform="translate(482.46103,-68.364845)">
    <rect
       style="fill:#ffffff;fill-opacity:1;stroke-width:1.15756"
       id="rect1346"
       width="100"
       height="100"
       x="-286.16833"
       y="86.687645"
       ry="2.6610968" />
    <rect
       style="fill:#ffffff;stroke-width:0.724377"
       id="rect1150"
       width="338.66666"
       height="169.33333"
       x="-482.46103"
       y="68.364845"
       ry="3.4290509" />
    <g
       id="g3827"
       transform="translate(2.6818584,1.6070311)">
      <g
         id="g3714"
         transform="translate(16.149257,23.724716)">
        <path
           id="rect1285"
           style="fill:#000000;fill-opacity:1;stroke-width:0.572998"
           d="m -463.80671,85.552169 c -1.24066,0 -2.23952,0.998866 -2.23952,2.239525 v 3.1119 h -2.43702 c -0.85999,0 -1.55211,0.69281 -1.55211,1.55279 0,0.85998 0.69212,1.55212 1.55211,1.55212 h 2.43702 v 21.006436 c 0,1.24065 0.99886,2.23952 2.23952,2.23952 1.24066,0 2.23953,-0.99887 2.23953,-2.23952 V 94.008504 h 2.43703 c 0.85998,0 1.55209,-0.69214 1.55209,-1.55212 0,-0.85998 -0.69211,-1.55279 -1.55209,-1.55279 h -2.43703 v -3.1119 c 0,-1.240659 -0.99887,-2.239525 -2.23953,-2.239525 z m 11.97369,0 c -1.24066,0 -2.23954,0.998866 -2.23954,2.239525 v 21.006436 h -2.43702 c -0.85998,0 -1.5521,0.69214 -1.5521,1.55211 0,0.85999 0.69212,1.55281 1.5521,1.55281 h 2.43702 v 3.11189 c 0,1.24065 0.99888,2.23952 2.23954,2.23952 1.24066,0 2.23952,-0.99887 2.23952,-2.23952 v -3.11189 h 2.43702 c 0.85998,0 1.55211,-0.69282 1.55211,-1.55281 0,-0.85997 -0.69213,-1.55211 -1.55211,-1.55211 h -2.43702 V 87.791694 c 0,-1.240659 -0.99886,-2.239525 -2.23952,-2.239525 z m 11.97367,0 c -1.24066,0 -2.23952,0.998866 -2.23952,2.239525 v 3.1119 h -2.43704 c -0.85998,0 -1.55209,0.69281 -1.55209,1.55279 0,0.85998 0.69211,1.55212 1.55209,1.55212 h 2.43704 v 21.006436 c 0,1.24065 0.99886,2.23952 2.23952,2.23952 1.24066,0 2.23952,-0.99887 2.23952,-2.23952 V 94.008504 h 2.43702 c 0.85999,0 1.55211,-0.69214 1.55211,-1.55212 0,-0.85998 -0.69212,-1.55279 -1.55211,-1.55279 h -2.43702 v -3.1119 c 0,-1.240659 -0.99886,-2.239525 -2.23952,-2.239525 z" />
        <text
           xml:space="preserve"
           style="font-style:normal;font-variant:normal;font-weight:bold;font-stretch:normal;font-size:27.6029px;font-family:'Roboto Condensed';-inkscape-font-specification:'Roboto Condensed,  Bold';white-space:pre;inline-size:235.921;display:inline;fill:#000000;stroke-width:1.9561"
           x="-425.20648"
           y="108.64773"
           id="text3492"><tspan
             x="-425.20648"
             y="108.64773"
             id="tspan3885">DL Type Environment</tspan></text>
      </g>
      <text
         xml:space="preserve"
         transform="matrix(0.40703706,0,0,0.40703706,-166.99952,71.528215)"
         id="text3812"
         style="font-style:normal;font-variant:normal;font-weight:normal;font-stretch:normal;font-size:26.6667px;font-family:'Roboto Condensed';-inkscape-font-specification:'Roboto Condensed, ';white-space:pre;shape-inside:url(#rect3814);display:inline;fill:#000000;stroke-width:1.88976"><tspan
           x="-676.25781"
           y="227.47789"
           id="tspan3889"><tspan
   style="font-weight:bold;font-stretch:condensed;-inkscape-font-specification:'Roboto Condensed,  Bold Condensed'"
   id="tspan3887">DL Typed Environment</tspan> — Gestiona tus variables de entorno </tspan><tspan
           x="-676.25781"
           y="260.81127"
           id="tspan3891">con tipado estático, validación automática y sintaxis clara </tspan><tspan
           x="-676.25781"
           y="294.14464"
           id="tspan3893">para un desarrollo seguro y confiable.</tspan></text>
    </g>
  </g>
</svg>
